<svg xmlns="http://www.w3.org/2000/svg" xmlns:xlink="http://www.w3.org/1999/xlink" width="64" zoomAndPan="magnify" viewBox="0 0 48 48" height="64" preserveAspectRatio="xMidYMid meet" version="1.0"><defs><clipPath id="765dbf2ae0"><path d="M 8.746094 0 L 39.605469 0 L 39.605469 47 L 8.746094 47 Z M 8.746094 0 " clip-rule="nonzero"/></clipPath></defs><g clip-path="url(#765dbf2ae0)"><path fill="#5db8d1" d="M 15.851562 3.59375 L 28.355469 3.59375 C 28.554688 3.59375 28.71875 3.753906 28.71875 3.949219 L 28.71875 23.683594 C 28.71875 28.957031 26.640625 33.914062 22.867188 37.644531 C 19.179688 41.289062 14.300781 43.332031 9.097656 43.421875 C 8.902344 43.425781 8.746094 43.585938 8.746094 43.777344 L 8.746094 46.636719 C 8.746094 46.835938 8.914062 46.996094 9.117188 46.992188 C 14.609375 46.910156 19.796875 44.980469 23.949219 41.503906 C 29.300781 37.03125 32.328125 30.414062 32.328125 23.484375 L 32.328125 0.378906 C 32.328125 0.183594 32.167969 0.0234375 31.96875 0.0234375 L 15.851562 0.0234375 C 15.652344 0.0234375 15.492188 0.183594 15.492188 0.378906 L 15.492188 3.238281 C 15.492188 3.433594 15.652344 3.59375 15.851562 3.59375 Z M 35.996094 0.378906 L 35.996094 14.699219 C 35.996094 14.898438 36.15625 15.054688 36.355469 15.054688 L 39.246094 15.054688 C 39.445312 15.054688 39.605469 14.898438 39.605469 14.699219 L 39.605469 0.378906 C 39.605469 0.183594 39.445312 0.0234375 39.246094 0.0234375 L 36.355469 0.0234375 C 36.15625 0.0234375 35.996094 0.183594 35.996094 0.378906 Z M 9.117188 39.851562 C 8.914062 39.855469 8.746094 39.695312 8.746094 39.492188 L 8.746094 36.636719 C 8.746094 36.445312 8.902344 36.285156 9.097656 36.28125 C 15.964844 36.097656 21.496094 30.515625 21.496094 23.683594 L 21.496094 9.304688 C 21.496094 9.109375 21.65625 8.949219 21.855469 8.949219 L 24.746094 8.949219 C 24.945312 8.949219 25.105469 9.109375 25.105469 9.304688 L 25.105469 23.683594 C 25.105469 32.476562 17.96875 39.65625 9.117188 39.851562 " fill-opacity="1" fill-rule="nonzero"/></g></svg>